# This file uses centimeters as units for non-parametric coordinates.

mtllib Barrier 1.mtl
g default
v 24.120562 -0.754608 40.230837
v 24.303148 -0.810953 40.230837
v 24.303148 -0.754608 40.365130
v 24.303148 -0.618582 40.420757
v 24.120562 -0.618582 40.365130
v 24.044937 -0.618582 40.230837
v 96.421378 -0.754608 40.230837
v 96.497012 -0.618582 40.230837
v 96.421378 -0.618582 40.365130
v 96.238797 -0.618582 40.420757
v 96.238797 -0.754608 40.365130
v 96.238797 -0.810953 40.230837
v 24.120562 8.632097 40.230837
v 24.044937 8.496070 40.230837
v 24.120562 8.496070 40.365130
v 24.303148 8.496070 40.420757
v 24.303148 8.632097 40.365130
v 24.303148 8.688442 40.230837
v 96.421378 8.632097 40.230837
v 96.238797 8.688442 40.230837
v 96.238797 8.632097 40.365130
v 96.238797 8.496070 40.420757
v 96.421378 8.496070 40.365130
v 96.497012 8.496070 40.230837
v 24.120562 8.496070 36.677580
v 24.044937 8.496070 36.811873
v 24.120562 8.632097 36.811873
v 24.303148 8.688442 36.811873
v 24.303148 8.632097 36.677580
v 24.303148 8.496070 36.621953
v 96.421378 8.496070 36.677580
v 96.238797 8.496070 36.621953
v 96.238797 8.632097 36.677580
v 96.238797 8.688442 36.811873
v 96.421378 8.632097 36.811873
v 96.497012 8.496070 36.811873
v 24.120562 -0.754608 36.811873
v 24.044937 -0.618582 36.811873
v 24.120562 -0.618582 36.677580
v 24.303148 -0.618582 36.621953
v 24.303148 -0.754608 36.677580
v 24.303148 -0.810953 36.811873
v 96.421378 -0.754608 36.811873
v 96.238797 -0.810953 36.811873
v 96.238797 -0.754608 36.677580
v 96.238797 -0.618582 36.621953
v 96.421378 -0.618582 36.677580
v 96.497012 -0.618582 36.811873
v 24.154119 -0.729608 40.340448
v 96.387820 -0.729608 40.340448
v 24.154119 8.607097 40.340448
v 96.387820 8.607097 40.340448
v 24.154119 8.607097 36.702262
v 96.387820 8.607097 36.702262
v 24.154119 -0.729608 36.702262
v 96.387820 -0.729608 36.702262
vt 0.989084 0.453884
vt 0.989104 0.457666
vt 0.937959 0.457801
vt 0.937940 0.454019
vt 0.991113 0.457660
vt 0.990728 0.454574
vt 0.990418 0.711087
vt 0.939273 0.711222
vt 0.935951 0.457806
vt 0.936304 0.454718
vt 0.989076 0.452317
vt 0.937932 0.452452
vt 0.992427 0.711081
vt 0.991093 0.453878
vt 0.990437 0.714869
vt 0.939293 0.715004
vt 0.937264 0.711227
vt 0.935931 0.454024
vt 0.991945 0.457658
vt 0.993259 0.711079
vt 0.992073 0.714169
vt 0.990445 0.716435
vt 0.939301 0.716570
vt 0.937649 0.714313
vt 0.936432 0.711229
vt 0.935118 0.457808
vt 0.992446 0.714863
vt 0.937284 0.715009
vt 0.018191 0.460229
vt 0.018172 0.456446
vt 0.069315 0.456311
vt 0.069335 0.460093
vt 0.016182 0.460234
vt 0.016535 0.457146
vt 0.018164 0.454880
vt 0.069307 0.454745
vt 0.071344 0.460088
vt 0.070959 0.457002
vt 0.070649 0.713514
vt 0.019505 0.713649
vt 0.017496 0.713655
vt 0.016162 0.456452
vt 0.071325 0.456306
vt 0.072658 0.713509
vt 0.019524 0.717432
vt 0.070668 0.717296
vt 0.017881 0.716741
vt 0.015350 0.460236
vt 0.016663 0.713657
vt 0.072305 0.716597
vt 0.073490 0.713507
vt 0.072177 0.460086
vt 0.019532 0.718998
vt 0.070677 0.718863
vt 0.017515 0.717437
vt 0.072678 0.717291
vt 0.936648 0.752942
vt 0.073706 0.755219
vt 0.073517 0.718722
vt 0.936459 0.716444
vt 0.936656 0.754375
vt 0.073714 0.756653
vt 0.936452 0.715011
vt 0.073510 0.717289
vt 0.935091 0.452593
vt 0.072150 0.454871
vt 0.071961 0.418373
vt 0.934902 0.416096
vt 0.935099 0.454027
vt 0.072157 0.456304
vt 0.934894 0.414662
vt 0.071953 0.416940
vt 0.934875 0.410880
vt 0.071934 0.413158
vt 0.936159 0.410876
vt 0.935939 0.413964
vt 0.070650 0.413161
vt 0.070902 0.416247
vt 0.070620 0.159737
vt 0.933561 0.157459
vt 0.933542 0.153677
vt 0.070601 0.155955
vt 0.934845 0.157456
vt 0.934594 0.154369
vt 0.069336 0.159740
vt 0.069556 0.156653
vt 0.937716 0.711226
vt 0.937495 0.714313
vt 0.072206 0.713511
vt 0.072459 0.716597
vt 0.936402 0.457805
vt 0.936150 0.454718
vt 0.070893 0.460089
vt 0.071113 0.457002
vn -0.000764 -0.999874 0.015832
vn -0.293646 -0.955817 0.013613
vn -0.293646 -0.955817 -0.013613
vn -0.000764 -0.999874 -0.015832
vn -0.874477 -0.484981 0.009192
vn -0.999743 -0.008084 0.021189
vn -0.999743 -0.008084 -0.021189
vn -0.874477 -0.484980 -0.009192
vn -0.000768 -0.006008 0.999982
vn -0.000300 -0.378467 0.925615
vn 0.000300 -0.378467 0.925615
vn 0.000768 -0.006008 0.999982
vn -0.000627 -0.922167 0.386792
vn 0.000764 -0.999874 0.015832
vn 0.000627 -0.922167 0.386792
vn -0.871610 -0.004936 0.490175
vn -0.871610 0.004936 0.490175
vn -0.999743 0.008084 0.021189
vn -0.291061 -0.004166 0.956695
vn -0.000768 0.006008 0.999982
vn -0.291061 0.004166 0.956695
vn 0.999743 -0.008085 0.021192
vn 0.874458 -0.485014 0.009192
vn 0.874458 -0.485014 -0.009192
vn 0.999743 -0.008085 -0.021192
vn 0.293656 -0.955814 0.013614
vn 0.000764 -0.999874 -0.015832
vn 0.293656 -0.955814 -0.013614
vn 0.291069 -0.004166 0.956693
vn 0.291069 0.004166 0.956693
vn 0.000768 0.006008 0.999982
vn 0.871583 -0.004936 0.490223
vn 0.999743 0.008085 0.021192
vn 0.871583 0.004936 0.490223
vn -0.874477 0.484979 0.009192
vn -0.874477 0.484979 -0.009192
vn -0.999743 0.008084 -0.021189
vn -0.293648 0.955817 0.013614
vn -0.000764 0.999874 0.015832
vn -0.000764 0.999874 -0.015832
vn -0.293648 0.955817 -0.013614
vn -0.000627 0.922164 0.386797
vn 0.000627 0.922164 0.386797
vn 0.000764 0.999874 0.015832
vn -0.000300 0.378467 0.925615
vn 0.000300 0.378467 0.925615
vn 0.293658 0.955814 0.013614
vn 0.293658 0.955814 -0.013614
vn 0.000764 0.999874 -0.015832
vn 0.874459 0.485013 0.009192
vn 0.999743 0.008085 -0.021192
vn 0.874459 0.485013 -0.009192
vn -0.871610 0.004936 -0.490175
vn -0.871610 -0.004936 -0.490175
vn -0.291061 0.004166 -0.956695
vn -0.000768 0.006008 -0.999982
vn -0.000768 -0.006008 -0.999982
vn -0.291062 -0.004166 -0.956695
vn -0.000300 0.378467 -0.925615
vn 0.000300 0.378467 -0.925615
vn 0.000768 0.006008 -0.999982
vn -0.000627 0.922164 -0.386797
vn 0.000627 0.922164 -0.386797
vn 0.291069 0.004166 -0.956693
vn 0.291069 -0.004166 -0.956693
vn 0.000768 -0.006008 -0.999982
vn 0.871583 0.004936 -0.490223
vn 0.871583 -0.004936 -0.490223
vn -0.000627 -0.922167 -0.386792
vn 0.000627 -0.922167 -0.386792
vn -0.000300 -0.378467 -0.925615
vn 0.000300 -0.378467 -0.925615
vn -0.819285 -0.402839 0.408036
vn -0.247883 -0.908278 0.337024
vn -0.245617 -0.329688 0.911580
vn 0.247894 -0.908273 0.337031
vn 0.819263 -0.402857 0.408062
vn 0.245625 -0.329689 0.911578
vn -0.247883 0.908277 0.337027
vn -0.819286 0.402836 0.408036
vn -0.245617 0.329688 0.911580
vn 0.819263 0.402860 0.408059
vn 0.247892 0.908273 0.337031
vn 0.245623 0.329687 0.911578
vn -0.245617 0.329688 -0.911580
vn -0.819286 0.402837 -0.408036
vn -0.247883 0.908276 -0.337028
vn 0.819265 0.402856 -0.408060
vn 0.245623 0.329687 -0.911579
vn 0.247894 0.908271 -0.337033
vn -0.247883 -0.908278 -0.337024
vn -0.819285 -0.402838 -0.408036
vn -0.245618 -0.329688 -0.911580
vn 0.819261 -0.402862 -0.408061
vn 0.247892 -0.908273 -0.337030
vn 0.245624 -0.329688 -0.911578
s 1
g pCube72
usemtl lambert12SG
f 2/11/1 1/1/2 37/4/3 42/12/4
s 2
f 1/1/5 6/2/6 38/3/7 37/4/8
s 3
f 4/73/9 3/71/10 11/72/11 10/74/12
s 1
f 3/71/13 2/68/1 12/67/14 11/72/15
s 2
f 6/2/6 5/5/16 15/13/17 14/7/18
s 3
f 5/5/19 4/19/9 16/20/20 15/13/21
s 4
f 8/29/22 7/30/23 43/31/24 48/32/25
s 1
f 7/30/26 12/35/14 44/36/27 43/31/28
s 3
f 10/48/12 9/33/29 23/41/30 22/49/31
s 4
f 9/33/32 8/29/22 24/40/33 23/41/34
s 2
f 14/7/18 13/15/35 27/16/36 26/8/37
s 5
f 13/15/38 18/22/39 28/23/40 27/16/41
f 18/57/39 17/61/42 21/62/43 20/58/44
s 3
f 17/81/45 16/80/20 22/79/31 21/82/46
s 5
f 20/53/44 19/45/47 35/46/48 34/54/49
s 4
f 19/45/50 24/40/33 36/39/51 35/46/52
s 2
f 26/8/37 25/17/53 39/9/54 38/3/7
s 6
f 25/17/55 30/25/56 40/26/57 39/9/58
f 30/25/56 29/63/59 33/64/60 32/51/61
s 5
f 29/63/62 28/60/40 34/59/49 33/64/63
s 6
f 32/51/61 31/44/64 47/37/65 46/52/66
s 4
f 31/44/67 36/39/51 48/32/25 47/37/68
s 1
f 42/65/4 41/69/69 45/70/70 44/66/27
s 6
f 41/69/71 40/26/57 46/52/66 45/70/72
s 3
f 4/73/9 10/74/12 22/79/31 16/80/20
s 5
f 18/57/39 20/58/44 34/59/49 28/60/40
s 6
f 30/25/56 32/51/61 46/52/66 40/26/57
s 1
f 42/65/4 44/66/27 12/67/14 2/68/1
s 4
f 8/29/22 48/32/25 36/39/51 24/40/33
s 2
f 38/3/7 6/2/6 14/7/18 26/8/37
f 5/5/16 6/2/6 1/1/5 49/6/73
s 1
f 1/1/2 2/11/1 3/14/13 49/6/74
s 3
f 3/71/10 4/73/9 5/75/19 49/76/75
s 1
f 11/42/15 12/35/14 7/30/26 50/34/76
s 4
f 7/30/23 8/29/22 9/33/32 50/34/77
s 3
f 9/77/29 10/74/12 11/72/11 50/78/78
s 5
f 17/27/42 18/22/39 13/15/38 51/21/79
s 2
f 13/15/35 14/7/18 15/13/17 51/21/80
s 3
f 15/83/21 16/80/20 17/81/45 51/84/81
s 4
f 23/41/34 24/40/33 19/45/50 52/47/82
s 5
f 19/45/47 20/53/44 21/55/43 52/47/83
s 3
f 21/82/46 22/79/31 23/85/30 52/86/84
s 6
f 29/63/59 30/25/56 25/87/55 53/88/85
s 2
f 25/17/53 26/8/37 27/16/36 53/24/86
s 5
f 27/16/41 28/23/40 29/28/62 53/24/87
s 4
f 35/46/52 36/39/51 31/44/67 54/50/88
s 6
f 31/89/64 32/51/61 33/64/60 54/90/89
s 5
f 33/56/63 34/54/49 35/46/48 54/50/90
s 1
f 41/18/69 42/12/4 37/4/3 55/10/91
s 2
f 37/4/8 38/3/7 39/9/54 55/10/92
s 6
f 39/91/58 40/26/57 41/69/71 55/92/93
s 4
f 47/37/68 48/32/25 43/31/24 56/38/94
s 1
f 43/31/28 44/36/27 45/43/70 56/38/95
s 6
f 45/70/72 46/52/66 47/93/65 56/94/96
