# This file uses centimeters as units for non-parametric coordinates.

mtllib Track 1.mtl
g default
v -410.962427 -0.039327 39.123822
v 386.260468 -0.039327 39.123822
v -410.962427 -0.039327 -41.332371
v 386.260468 -0.039327 -41.332371
v -410.962427 -1.135144 -41.332371
v 386.260468 -1.135144 -41.332371
v -410.962427 -1.135144 39.123822
v 386.260468 -1.135144 39.123822
vt 0.922092 0.001810
vt 0.981429 0.001810
vt 0.981429 0.388279
vt 0.922092 0.388279
vt 0.938670 0.392271
vt 0.998008 0.392271
vt 0.998008 0.778741
vt 0.938670 0.778741
vt 0.395875 0.906683
vt 0.395875 0.001810
vt 0.455212 0.001810
vt 0.455212 0.906683
vt 0.855828 0.906683
vt 0.855828 0.001810
vt 0.915165 0.001810
vt 0.915165 0.906683
vt 0.001992 0.906682
vt 0.001992 0.001810
vt 0.388462 0.001810
vt 0.388462 0.906682
vt 0.462139 0.906686
vt 0.462139 0.001810
vt 0.848606 0.001810
vt 0.848606 0.906686
vn 0.000000 1.000000 0.000000
vn 0.000000 1.000000 0.000000
vn 0.000000 1.000000 0.000000
vn 0.000000 1.000000 0.000000
vn 0.000000 0.000000 -1.000000
vn 0.000000 0.000000 -1.000000
vn 0.000000 0.000000 -1.000000
vn 0.000000 0.000000 -1.000000
vn 0.000000 -1.000000 -0.000000
vn 0.000000 -1.000000 -0.000000
vn 0.000000 -1.000000 -0.000000
vn 0.000000 -1.000000 -0.000000
vn 0.000000 -0.000000 1.000000
vn 0.000000 -0.000000 1.000000
vn 0.000000 -0.000000 1.000000
vn 0.000000 -0.000000 1.000000
vn 1.000000 0.000000 0.000000
vn 1.000000 0.000000 0.000000
vn 1.000000 0.000000 0.000000
vn 1.000000 0.000000 0.000000
vn -1.000000 0.000000 0.000000
vn -1.000000 0.000000 0.000000
vn -1.000000 0.000000 0.000000
vn -1.000000 0.000000 0.000000
s off
g pCube12
usemtl lambert5SG
f 1/17/1 2/18/2 4/19/3 3/20/4
f 3/9/5 4/10/6 6/11/7 5/12/8
f 5/21/9 6/22/10 8/23/11 7/24/12
f 7/13/13 8/14/14 2/15/15 1/16/16
f 2/1/17 8/2/18 6/3/19 4/4/20
f 7/5/21 1/6/22 3/7/23 5/8/24
