# This file uses centimeters as units for non-parametric coordinates.

mtllib Poster.mtl
g default
v 36.430343 21.362790 -74.629526
v 42.314614 21.362790 -74.629526
v 36.430343 25.446127 -74.629526
v 42.314614 25.446127 -74.629526
v 36.430343 25.446127 -74.662029
v 42.314614 25.446127 -74.662029
v 36.430343 21.362790 -74.662029
v 42.314614 21.362790 -74.662029
vt 0.813748 0.604040
vt 0.771043 0.604259
vt 0.770904 0.576961
vt 0.813609 0.576742
vt 0.813892 0.632004
vt 0.771187 0.632223
vt 0.771047 0.604925
vt 0.813752 0.604707
vt 0.770658 0.613597
vt 0.721080 0.613852
vt 0.720861 0.571147
vt 0.770439 0.570892
vt 0.820478 0.576041
vt 0.770900 0.576295
vt 0.770681 0.533590
vt 0.820259 0.533336
vt 0.770802 0.641772
vt 0.721224 0.642026
vt 0.721084 0.614729
vt 0.770662 0.614474
vt 0.984140 1.003468
vt 0.003350 1.003981
vt 0.012134 0.010447
vt 0.992924 0.009933
vn -0.000000 0.000000 1.000000
vn -0.000000 0.000000 1.000000
vn -0.000000 0.000000 1.000000
vn -0.000000 0.000000 1.000000
vn 0.000000 1.000000 0.000000
vn 0.000000 1.000000 0.000000
vn 0.000000 1.000000 0.000000
vn 0.000000 1.000000 0.000000
vn 0.000000 0.000000 -1.000000
vn 0.000000 0.000000 -1.000000
vn 0.000000 0.000000 -1.000000
vn 0.000000 0.000000 -1.000000
vn -0.000000 -1.000000 -0.000000
vn -0.000000 -1.000000 -0.000000
vn -0.000000 -1.000000 -0.000000
vn -0.000000 -1.000000 -0.000000
vn 1.000000 0.000000 0.000000
vn 1.000000 0.000000 0.000000
vn 1.000000 0.000000 0.000000
vn 1.000000 0.000000 0.000000
vn -1.000000 0.000000 -0.000000
vn -1.000000 0.000000 -0.000000
vn -1.000000 0.000000 -0.000000
vn -1.000000 0.000000 -0.000000
s off
g pCube323
usemtl initialShadingGroup
f 1/17/1 2/18/2 4/19/3 3/20/4
f 3/9/5 4/10/6 6/11/7 5/12/8
usemtl lambert19SG
f 5/21/9 6/22/10 8/23/11 7/24/12
usemtl initialShadingGroup
f 7/13/13 8/14/14 2/15/15 1/16/16
f 2/1/17 8/2/18 6/3/19 4/4/20
f 7/5/21 1/6/22 3/7/23 5/8/24
