# This file uses centimeters as units for non-parametric coordinates.

mtllib Speed bump.mtl
g default
v -216.935556 -0.354238 37.040135
v -213.211737 -0.354238 37.040135
v -216.665165 0.008434 37.040135
v -213.540667 0.008434 37.040135
v -216.665165 0.008434 -40.469043
v -213.540667 0.008434 -40.469043
v -216.935556 -0.354238 -40.469043
v -213.482129 -0.352321 -40.469043
v -214.502304 0.566727 -40.469043
v -214.502304 -0.354238 -40.469043
v -214.502304 -0.354238 37.040135
v -214.502304 0.566727 37.040135
v -215.547296 0.566727 -40.469043
v -215.547296 -0.354238 -40.469043
v -215.547296 -0.354238 37.040135
v -215.547296 0.566727 37.040135
v -214.023900 0.419591 -40.469043
v -214.023900 -0.352321 -40.469043
v -214.023900 -0.354238 37.040135
v -214.023900 0.419591 37.040135
v -216.109587 0.419591 -40.469048
v -216.109587 -0.354238 -40.469048
v -216.109587 -0.354238 37.040140
v -216.109587 0.419591 37.040140
v -213.540667 0.008434 29.494274
v -214.023900 0.419591 29.494274
v -214.502304 0.566727 29.494274
v -215.547296 0.566727 29.494274
v -216.109587 0.419591 29.494279
v -216.665165 0.008434 29.494274
v -216.935556 -0.354238 29.494274
v -216.109587 -0.354238 29.494279
v -215.547296 -0.354238 29.494274
v -214.502304 -0.354238 29.494274
v -214.023900 -0.354238 29.494274
v -213.211737 -0.354238 29.494274
v -213.540667 0.008434 7.240897
v -214.023900 0.419591 7.240897
v -214.502304 0.566727 7.240897
v -215.547296 0.566727 7.240897
v -216.109587 0.419591 7.240898
v -216.665165 0.008434 7.240897
v -216.935556 -0.354238 7.240897
v -216.109587 -0.354238 7.240898
v -215.547296 -0.354238 7.240897
v -214.502304 -0.354238 7.240897
v -214.023900 -0.352321 7.240897
v -213.211737 -0.352321 7.240897
v -213.540667 0.008434 -34.321083
v -214.023900 0.419591 -34.321083
v -214.502304 0.566727 -34.321083
v -215.547296 0.566727 -34.321083
v -216.109587 0.419591 -34.321085
v -216.665165 0.008434 -34.321083
v -216.935556 -0.354238 -34.321083
v -216.109587 -0.354238 -34.321085
v -215.547296 -0.354238 -34.321083
v -214.502304 -0.354238 -34.321083
v -214.023900 -0.352321 -34.321083
v -213.482129 -0.352321 -34.321083
v -214.502304 -0.354238 -20.017629
v -215.547296 -0.354238 -20.017629
v -216.109587 -0.354238 -20.017631
v -216.935556 -0.354238 -20.017629
v -216.665165 0.008434 -20.017629
v -216.109587 0.419591 -20.017631
v -215.547296 0.566727 -20.017629
v -214.502304 0.566727 -20.017629
v -214.023900 0.419591 -20.017629
v -213.540667 0.008434 -20.017629
v -213.211737 -0.354238 -20.017629
v -214.023900 -0.354238 -20.017629
v -214.502304 -0.354238 -6.955600
v -215.547296 -0.354238 -6.955600
v -216.109587 -0.354238 -6.955600
v -216.935556 -0.354238 -6.955600
v -216.665165 0.008434 -6.955600
v -216.109587 0.419591 -6.955600
v -215.547296 0.566727 -6.955600
v -214.502304 0.566727 -6.955600
v -214.023900 0.419591 -6.955600
v -213.540667 0.008434 -6.955600
v -213.211737 -0.352321 -6.955600
v -214.023900 -0.352321 -6.955600
v -213.211737 -0.354238 36.692245
v -214.023900 -0.354238 36.692245
v -214.502304 -0.354238 36.692245
v -215.547296 -0.354238 36.692245
v -216.109587 -0.354238 36.692249
v -216.935556 -0.354238 36.692245
v -216.665165 0.008434 36.692245
v -216.109587 0.419591 36.692249
v -215.547296 0.566727 36.692245
v -214.502304 0.566727 36.692245
v -214.023900 0.419591 36.692245
v -213.540667 0.008434 36.692245
v -214.502304 -0.025338 37.040135
v -215.547296 -0.025338 37.040135
v -216.109587 -0.094864 37.040140
v -216.935556 -0.289147 37.040135
v -216.935556 -0.289147 36.692245
v -216.935556 -0.289147 29.494274
v -216.935556 -0.289147 7.240897
v -216.935556 -0.289147 -6.955600
v -216.935556 -0.289147 -20.017628
v -216.935556 -0.289147 -34.321083
v -216.935556 -0.289147 -40.469043
v -216.109587 -0.094864 -40.469048
v -215.547296 -0.025338 -40.469043
v -214.502304 -0.025338 -40.469043
v -214.023900 -0.094864 -40.469043
v -213.211737 -0.289147 -40.469043
v -213.211737 -0.289147 -34.321080
v -213.211737 -0.289147 -20.017629
v -213.211737 -0.289147 -6.955600
v -213.211737 -0.289147 7.240897
v -213.211737 -0.289147 29.494274
v -213.211737 -0.289147 36.692245
v -213.211737 -0.289147 37.040135
v -214.023900 -0.094864 37.040135
v -214.502304 0.294016 37.040135
v -215.547296 0.294016 37.040135
v -216.109587 0.182628 37.040140
v -216.829535 -0.128634 37.040135
v -216.829535 -0.128634 36.692245
v -216.829535 -0.128634 29.494274
v -216.829535 -0.128634 7.240897
v -216.829535 -0.128634 -6.955600
v -216.829535 -0.128634 -20.017629
v -216.829535 -0.128634 -34.321083
v -216.829535 -0.128634 -40.469043
v -216.109587 0.182628 -40.469048
v -215.547296 0.294016 -40.469043
v -214.502304 0.294016 -40.469043
v -214.023900 0.182628 -40.469043
v -213.396471 -0.128634 -40.469043
v -213.396471 -0.128634 -34.321080
v -213.396471 -0.128634 -20.017629
v -213.396471 -0.128634 -6.955600
v -213.396471 -0.128634 7.240897
v -213.396471 -0.128634 29.494274
v -213.396471 -0.128634 36.692245
v -213.396471 -0.128634 37.040135
v -214.023900 0.182628 37.040135
vt 0.959067 0.493731
vt 0.959071 0.494475
vt 0.875818 0.495114
vt 0.875813 0.494401
vt 0.963095 0.494444
vt 0.963091 0.493699
vt 0.618428 0.497079
vt 0.618424 0.496473
vt 0.959057 0.492024
vt 0.875804 0.492694
vt 0.963081 0.491991
vt 0.454227 0.498339
vt 0.454224 0.497795
vt 0.618415 0.494766
vt 0.959049 0.490566
vt 0.875795 0.491236
vt 0.963073 0.490533
vt 0.303147 0.499508
vt 0.303145 0.499162
vt 0.454214 0.496088
vt 0.618406 0.493308
vt 0.875770 0.486862
vt 0.959024 0.486192
vt 0.963048 0.486160
vt 0.303135 0.497304
vt 0.454205 0.494630
vt 0.618381 0.488934
vt 0.137707 0.500431
vt 0.137697 0.498635
vt 0.303126 0.495846
vt 0.454180 0.490256
vt 0.066598 0.500977
vt 0.066588 0.499208
vt 0.137688 0.497177
vt 0.303101 0.491472
vt 0.066579 0.497750
vt 0.137663 0.492804
vt 0.066554 0.493376
vt 0.875523 0.443913
vt 0.958777 0.443243
vt 0.958781 0.443935
vt 0.875527 0.444605
vt 0.962801 0.443211
vt 0.962804 0.443903
vt 0.958791 0.445643
vt 0.875537 0.446313
vt 0.618134 0.445985
vt 0.618138 0.446677
vt 0.962814 0.445610
vt 0.958799 0.447101
vt 0.875545 0.447771
vt 0.618148 0.448385
vt 0.453937 0.447999
vt 0.453933 0.447307
vt 0.962823 0.447068
vt 0.618156 0.449843
vt 0.453947 0.449707
vt 0.302858 0.449215
vt 0.302854 0.448523
vt 0.453955 0.451165
vt 0.302868 0.450923
vt 0.137416 0.449855
vt 0.137420 0.450547
vt 0.302876 0.452381
vt 0.137430 0.452255
vt 0.066307 0.450427
vt 0.066311 0.451119
vt 0.137438 0.453713
vt 0.066321 0.452827
vt 0.066329 0.454285
vt 0.958846 0.455323
vt 0.875592 0.455994
vt 0.962870 0.455291
vt 0.958894 0.463645
vt 0.875640 0.464316
vt 0.618204 0.458066
vt 0.962918 0.463613
vt 0.958983 0.479112
vt 0.875729 0.479782
vt 0.618251 0.466388
vt 0.454003 0.459387
vt 0.963007 0.479079
vt 0.618340 0.481854
vt 0.454051 0.467709
vt 0.302923 0.460603
vt 0.454140 0.483175
vt 0.302971 0.468926
vt 0.137486 0.461935
vt 0.303060 0.484392
vt 0.137534 0.470257
vt 0.066377 0.462508
vt 0.137623 0.485723
vt 0.066424 0.470830
vt 0.066513 0.486296
vt 0.876101 0.550247
vt 0.876038 0.538023
vt 0.959292 0.537415
vt 0.959355 0.549640
vt 0.618711 0.552126
vt 0.618648 0.539901
vt 0.875995 0.529700
vt 0.959249 0.529093
vt 0.963316 0.537386
vt 0.963379 0.549610
vt 0.454510 0.553324
vt 0.454447 0.541099
vt 0.618605 0.531579
vt 0.875916 0.514234
vt 0.959170 0.513627
vt 0.963273 0.529064
vt 0.303430 0.554426
vt 0.303367 0.542202
vt 0.454404 0.532777
vt 0.618526 0.516113
vt 0.875879 0.507154
vt 0.959133 0.506546
vt 0.963194 0.513597
vt 0.137991 0.555634
vt 0.137928 0.543409
vt 0.303324 0.533880
vt 0.454324 0.517311
vt 0.618489 0.509032
vt 0.963157 0.506517
vt 0.066882 0.556153
vt 0.066819 0.543928
vt 0.137886 0.535087
vt 0.303244 0.518414
vt 0.454288 0.510230
vt 0.066776 0.535606
vt 0.137806 0.519621
vt 0.303208 0.511333
vt 0.066697 0.520140
vt 0.137769 0.512540
vt 0.066660 0.513059
vt 0.137728 0.504522
vt 0.066619 0.505041
vt 0.108098 0.379142
vt 0.108098 0.343336
vt 0.116179 0.343336
vt 0.110126 0.379142
vt 0.108098 0.318961
vt 0.118345 0.318961
vt 0.124825 0.343336
vt 0.115127 0.374546
vt 0.108098 0.273661
vt 0.118345 0.273661
vt 0.128295 0.318961
vt 0.132208 0.343336
vt 0.119398 0.367421
vt 0.116179 0.252922
vt 0.108098 0.252922
vt 0.128295 0.273661
vt 0.136792 0.318961
vt 0.124825 0.252922
vt 0.108098 0.217715
vt 0.110126 0.217715
vt 0.136792 0.273661
vt 0.132208 0.252922
vt 0.115127 0.225723
vt 0.119398 0.231974
vt 0.182733 0.379142
vt 0.176680 0.343336
vt 0.184761 0.343336
vt 0.184761 0.379142
vt 0.177732 0.374546
vt 0.168034 0.343336
vt 0.174514 0.318961
vt 0.184761 0.318961
vt 0.173461 0.367420
vt 0.160651 0.343336
vt 0.164564 0.318961
vt 0.174514 0.273661
vt 0.184761 0.273661
vt 0.156067 0.318961
vt 0.164564 0.273661
vt 0.176680 0.252922
vt 0.184701 0.252922
vt 0.156067 0.273661
vt 0.168034 0.252922
vt 0.182733 0.217715
vt 0.184701 0.229436
vt 0.160651 0.252922
vt 0.177732 0.225723
vt 0.173461 0.231974
vn -0.000003 0.000000 1.000000
vn 0.000004 0.000000 1.000000
vn 0.000004 0.000000 1.000000
vn -0.000003 0.000000 1.000000
vn -0.594870 0.803822 0.000000
vn -0.446803 0.894633 0.000000
vn -0.446802 0.894633 0.000000
vn -0.594870 0.803822 0.000000
vn -0.000003 0.000000 -1.000000
vn 0.000003 0.000000 -1.000000
vn 0.000004 0.000000 -1.000000
vn -0.000003 0.000000 -1.000000
vn -0.000000 -1.000000 -0.000000
vn 0.000000 -1.000000 -0.000000
vn 0.000000 -1.000000 0.000000
vn -0.000000 -1.000000 0.000000
vn 0.773708 0.633542 -0.000000
vn 1.000000 0.000000 0.000000
vn 1.000000 0.000002 -0.000000
vn 0.772708 0.634762 -0.000000
vn -1.000000 0.000003 0.000000
vn -1.000000 0.000005 -0.000000
vn -0.905043 0.425321 0.000000
vn -0.905043 0.425321 0.000000
vn 0.000001 0.000000 -1.000000
vn 0.000000 0.000000 -1.000000
vn -0.000003 0.000000 -1.000000
vn 0.000000 0.000000 -1.000000
vn 0.000000 -1.000000 0.000000
vn 0.000476 -1.000000 -0.000010
vn 0.000561 -1.000000 -0.000053
vn -0.000000 -1.000000 0.000000
vn -0.000001 0.000000 1.000000
vn 0.000000 0.000000 1.000000
vn 0.000000 0.000000 1.000000
vn -0.000003 0.000000 1.000000
vn 0.096137 0.995368 0.000000
vn 0.096137 0.995368 0.000000
vn 0.502083 0.864819 0.000000
vn 0.502083 0.864819 0.000000
vn 0.000003 0.000000 -1.000000
vn 0.000003 0.000000 -1.000000
vn 0.000000 -1.000000 0.000000
vn 0.000000 -1.000000 -0.000000
vn 0.000004 0.000000 1.000000
vn 0.000003 0.000000 1.000000
vn -0.091162 0.995836 0.000000
vn -0.091162 0.995836 0.000000
vn -0.000003 0.000000 -1.000000
vn -0.000006 0.000000 -1.000000
vn -0.000000 -1.000000 -0.000065
vn -0.000000 -1.000000 0.000000
vn -0.000006 0.000000 1.000000
vn -0.000005 0.000000 1.000000
vn 0.648022 0.761622 0.000000
vn 0.648022 0.761622 0.000000
vn 0.502083 0.864819 -0.000000
vn 0.648022 0.761622 -0.000000
vn 0.096137 0.995368 -0.000000
vn -0.091162 0.995836 -0.000000
vn -0.446803 0.894633 -0.000000
vn -0.594870 0.803822 -0.000000
vn -1.000000 0.000003 -0.000000
vn -0.905043 0.425321 -0.000000
vn -0.000000 -1.000000 -0.000000
vn 0.000000 -1.000000 -0.000000
vn 0.000000 -1.000000 -0.000000
vn 0.000874 -1.000000 -0.000008
vn 0.001032 -0.999999 -0.000043
vn -0.000000 -1.000000 -0.000053
vn 1.000000 0.000003 -0.000000
vn 0.771865 0.635787 -0.000000
vn 0.502083 0.864819 -0.000000
vn 0.502083 0.864819 -0.000000
vn 0.648022 0.761621 0.000000
vn 0.648022 0.761622 -0.000000
vn 0.096137 0.995368 -0.000000
vn 0.096137 0.995368 -0.000000
vn -0.091162 0.995836 -0.000000
vn -0.091162 0.995836 -0.000000
vn -0.446803 0.894633 -0.000000
vn -0.446803 0.894633 -0.000000
vn -0.594870 0.803822 0.000000
vn -0.594870 0.803822 0.000000
vn -1.000000 0.000004 0.000000
vn -1.000000 0.000004 0.000000
vn -0.905043 0.425321 0.000000
vn -0.905043 0.425321 0.000000
vn -0.000000 -1.000000 0.000000
vn 0.000000 -1.000000 -0.000000
vn 0.000000 -1.000000 0.000000
vn -0.000000 -1.000000 0.000000
vn 0.000000 -1.000000 0.000000
vn 0.000000 -1.000000 -0.000000
vn 0.000629 -1.000000 0.000000
vn 0.000818 -1.000000 -0.000015
vn 0.000786 -1.000000 0.000008
vn 0.001119 -0.999999 -0.000077
vn -0.000000 -1.000000 0.000014
vn -0.000000 -1.000000 -0.000100
vn 0.891637 0.452750 -0.001276
vn 0.672052 -0.740497 -0.003370
vn 0.340604 -0.940204 -0.002286
vn 0.999213 0.039619 -0.001916
vn 0.502083 0.864819 -0.000000
vn 0.648022 0.761622 -0.000000
vn 0.096137 0.995368 0.000000
vn -0.091162 0.995836 -0.000000
vn -0.446803 0.894633 -0.000000
vn -0.594870 0.803822 0.000000
vn -1.000000 0.000003 0.000000
vn -0.905043 0.425320 0.000000
vn -0.000000 -1.000000 0.000000
vn 0.000000 -1.000000 -0.000000
vn 0.000000 -1.000000 -0.000000
vn 0.001259 -0.999999 -0.000000
vn 0.001879 -0.999998 -0.000000
vn -0.000000 -1.000000 -0.000000
vn 0.227513 -0.973775 0.000000
vn 0.933869 -0.357615 0.000000
vn 0.000957 -1.000000 0.000011
vn 0.000000 -1.000000 0.000000
vn 0.000000 -1.000000 0.000000
vn -0.000000 -1.000000 0.000000
vn -1.000000 0.000002 -0.000000
vn -0.905043 0.425321 -0.000000
vn -0.594870 0.803822 -0.000000
vn -0.446803 0.894633 -0.000000
vn -0.091162 0.995836 0.000000
vn 0.096137 0.995368 0.000000
vn 0.502083 0.864819 -0.000000
vn 0.648022 0.761622 -0.000000
vn 0.771689 0.636000 -0.000000
vn 1.000000 0.000004 -0.000000
vn -0.000000 -1.000000 0.000070
vn 0.001130 -0.999999 0.000057
vn -0.000000 -1.000000 0.000000
vn -0.000000 -1.000000 0.000000
vn 0.000000 -1.000000 0.000000
vn 0.000000 -1.000000 0.000000
vn 0.000000 -1.000000 0.000000
vn -0.000000 -1.000000 0.000000
vn -1.000000 0.000003 0.000000
vn -0.905043 0.425320 0.000000
vn -0.594872 0.803820 0.000000
vn -0.446804 0.894632 0.000000
vn -0.091162 0.995836 0.000000
vn 0.096136 0.995368 0.000000
vn 0.502082 0.864820 0.000000
vn 0.648020 0.761623 0.000000
vn 1.000000 0.000000 0.000000
vn 0.773708 0.633542 0.000000
vn 0.000003 0.000000 1.000000
vn 0.000001 0.000000 1.000000
vn 0.000006 0.000001 1.000000
vn -0.000004 0.000002 1.000000
vn -0.740109 0.672487 0.000000
vn -0.740109 0.672487 0.000000
vn -0.740109 0.672487 0.000000
vn -0.740109 0.672487 -0.000000
vn -0.740109 0.672487 -0.000000
vn -0.740109 0.672487 0.000000
vn -0.740109 0.672487 0.000000
vn -0.740109 0.672487 0.000000
vn -0.000005 0.000002 -1.000000
vn 0.000003 0.000001 -1.000000
vn 0.000003 0.000000 -1.000000
vn 0.000002 0.000000 -1.000000
vn 0.000007 0.000000 -1.000000
vn 0.000001 0.000000 -1.000000
vn 0.670887 0.741560 0.000000
vn 0.670887 0.741560 0.000000
vn 0.670887 0.741560 0.000000
vn 0.670887 0.741560 -0.000000
vn 0.670887 0.741560 -0.000000
vn 0.670887 0.741560 -0.000000
vn 0.670886 0.741560 -0.000000
vn 0.670886 0.741560 0.000000
vn 0.000006 0.000000 1.000000
vn 0.000001 0.000000 1.000000
vn 0.000002 0.000000 1.000000
vn 0.000003 0.000000 1.000000
vn 0.000006 0.000001 1.000000
vn 0.000009 0.000004 1.000000
vn -0.640442 0.768006 0.000000
vn -0.640442 0.768006 0.000000
vn -0.640442 0.768007 -0.000000
vn -0.640442 0.768007 -0.000000
vn -0.640442 0.768007 -0.000000
vn -0.640442 0.768007 0.000000
vn -0.640442 0.768007 0.000000
vn -0.640442 0.768007 0.000000
vn -0.000009 0.000004 -1.000000
vn 0.000005 0.000001 -1.000000
vn 0.000003 0.000000 -1.000000
vn 0.000002 0.000000 -1.000000
vn 0.000010 0.000000 -1.000000
vn 0.000020 0.000000 -1.000000
vn 0.688967 0.724793 0.000000
vn 0.688967 0.724792 0.000000
vn 0.688967 0.724792 0.000000
vn 0.688967 0.724792 -0.000000
vn 0.688967 0.724792 -0.000000
vn 0.688967 0.724792 -0.000000
vn 0.688967 0.724792 -0.000000
vn 0.688968 0.724792 0.000000
vn 0.000012 0.000000 1.000000
vn 0.000020 0.000000 1.000000
s 1
g pCube324
usemtl initialShadingGroup
f 1/137/1 23/138/2 99/139/3 100/140/4
s 2
f 91/50/5 92/71/6 29/72/7 30/51/8
s 3
f 107/161/9 108/162/10 22/163/11 7/164/12
s 4
f 31/95/13 32/96/14 89/97/15 90/98/16
s 5
f 118/1/17 85/2/18 36/3/19 117/4/20
s 6
f 31/39/21 90/40/22 101/41/23 102/42/24
s 3
f 110/172/25 111/176/26 18/177/27 10/173/28
s 4
f 87/109/29 34/108/30 35/115/31 86/116/32
s 1
f 120/150/33 97/146/34 11/145/35 19/151/36
s 2
f 27/79/37 94/78/38 95/23/39 26/22/40
s 3
f 109/167/41 110/172/25 10/173/28 14/168/42
s 4
f 88/102/43 33/101/44 34/108/30 87/109/29
s 1
f 98/142/45 15/141/46 11/145/35 97/146/34
s 2
f 28/75/47 93/74/48 94/78/38 27/79/37
s 3
f 111/176/26 112/180/49 8/181/50 18/177/27
s 4
f 86/116/32 35/115/31 36/3/51 85/2/52
s 1
f 120/150/33 19/151/36 2/155/53 119/156/54
s 2
f 26/22/40 95/23/39 96/15/55 25/16/56
s 3
f 108/162/10 109/167/41 14/168/42 22/163/11
s 4
f 89/97/15 32/96/14 33/101/44 88/102/43
s 1
f 99/139/3 23/138/2 15/141/46 98/142/45
s 2
f 29/72/7 92/71/6 93/74/48 28/75/47
f 38/27/57 26/22/40 25/16/56 37/21/58
f 39/83/59 27/79/37 26/22/40 38/27/57
f 40/80/60 28/75/47 27/79/37 39/83/59
f 41/76/61 29/72/7 28/75/47 40/80/60
f 30/51/8 29/72/7 41/76/61 42/56/62
s 6
f 43/47/63 31/39/21 102/42/24 103/48/64
s 4
f 43/99/65 44/100/66 32/96/14 31/95/13
f 33/101/44 32/96/14 44/100/66 45/107/67
f 34/108/30 33/101/44 45/107/67 46/114/68
f 35/115/31 34/108/30 46/114/68 47/122/69
f 36/3/51 35/115/31 47/122/69 48/7/70
s 5
f 117/4/20 36/3/19 48/7/71 116/8/72
s 2
f 50/37/73 69/35/74 70/30/75 49/34/76
f 51/92/77 68/89/78 69/35/74 50/37/73
f 52/90/79 67/87/80 68/89/78 51/92/77
f 53/88/81 66/85/82 67/87/80 52/90/79
f 65/64/83 66/85/82 53/88/81 54/68/84
s 6
f 55/62/85 64/59/86 105/58/87 106/63/88
s 4
f 55/118/89 56/119/90 63/112/91 64/111/92
f 62/120/93 63/112/91 56/119/90 57/126/94
f 61/127/95 62/120/93 57/126/94 58/130/96
f 72/131/97 61/127/95 58/130/96 59/133/98
f 71/18/99 72/131/97 59/133/98 60/135/100
s 5
f 114/19/101 71/18/102 60/135/103 113/28/104
s 2
f 17/38/105 50/37/73 49/34/76 6/36/106
f 9/94/107 51/92/77 50/37/73 17/38/105
f 13/93/108 52/90/79 51/92/77 9/94/107
f 21/91/109 53/88/81 52/90/79 13/93/108
f 54/68/84 53/88/81 21/91/109 5/70/110
s 6
f 7/66/111 55/62/85 106/63/88 107/67/112
s 4
f 7/124/113 22/125/114 56/119/90 55/118/89
f 57/126/94 56/119/90 22/125/114 14/129/115
f 58/130/96 57/126/94 14/129/115 10/132/116
f 59/133/98 58/130/96 10/132/116 18/134/117
f 60/135/100 59/133/98 18/134/117 8/136/118
s 5
f 113/28/104 60/135/103 8/136/119 112/32/120
s 4
f 73/121/121 74/113/122 62/120/93 61/127/95
f 74/113/122 75/106/123 63/112/91 62/120/93
f 64/111/92 63/112/91 75/106/123 76/105/124
s 6
f 105/58/87 64/59/86 76/54/125 104/53/126
s 2
f 77/60/127 78/81/128 66/85/82 65/64/83
f 67/87/80 66/85/82 78/81/128 79/84/129
f 68/89/78 67/87/80 79/84/129 80/86/130
f 69/35/74 68/89/78 80/86/130 81/31/131
f 70/30/75 69/35/74 81/31/131 82/26/132
s 5
f 115/13/133 83/12/134 71/18/102 114/19/101
s 4
f 83/12/135 84/128/136 72/131/97 71/18/99
f 84/128/136 73/121/121 61/127/95 72/131/97
f 46/114/68 45/107/67 74/113/122 73/121/121
f 45/107/67 44/100/66 75/106/123 74/113/122
f 76/105/124 75/106/123 44/100/66 43/99/65
s 6
f 104/53/126 76/54/125 43/47/63 103/48/64
s 2
f 42/56/62 41/76/61 78/81/128 77/60/127
f 79/84/129 78/81/128 41/76/61 40/80/60
f 80/86/130 79/84/129 40/80/60 39/83/59
f 81/31/131 80/86/130 39/83/59 38/27/57
f 82/26/132 81/31/131 38/27/57 37/21/58
s 5
f 116/8/72 48/7/71 83/12/134 115/13/133
s 4
f 48/7/70 47/122/69 84/128/136 83/12/135
f 47/122/69 46/114/68 73/121/121 84/128/136
f 19/123/137 86/116/32 85/2/52 2/5/138
f 11/117/139 87/109/29 86/116/32 19/123/137
f 15/110/140 88/102/43 87/109/29 11/117/139
f 23/103/141 89/97/15 88/102/43 15/110/140
f 90/98/16 89/97/15 23/103/141 1/104/142
s 6
f 101/41/23 90/40/22 1/43/143 100/44/144
s 2
f 3/55/145 24/73/146 92/71/6 91/50/5
f 93/74/48 92/71/6 24/73/146 16/77/147
f 94/78/38 93/74/48 16/77/147 12/82/148
f 95/23/39 94/78/38 12/82/148 20/24/149
f 96/15/55 95/23/39 20/24/149 4/17/150
s 5
f 2/5/151 85/2/18 118/1/17 119/6/152
s 1
f 122/147/153 98/142/45 97/146/34 121/152/154
f 123/143/155 99/139/3 98/142/45 122/147/153
f 100/140/4 99/139/3 123/143/155 124/144/156
s 6
f 125/45/157 101/41/23 100/44/144 124/49/158
f 102/42/24 101/41/23 125/45/157 126/46/159
f 103/48/64 102/42/24 126/46/159 127/52/160
f 128/57/161 104/53/126 103/48/64 127/52/160
f 129/61/162 105/58/87 104/53/126 128/57/161
f 106/63/88 105/58/87 129/61/162 130/65/163
f 107/67/112 106/63/88 130/65/163 131/69/164
s 3
f 131/165/165 132/166/166 108/162/10 107/161/9
f 132/166/166 133/171/167 109/167/41 108/162/10
f 133/171/167 134/175/168 110/172/25 109/167/41
f 134/175/168 135/179/169 111/176/26 110/172/25
f 135/179/169 136/183/170 112/180/49 111/176/26
s 5
f 137/29/171 113/28/104 112/32/120 136/33/172
f 138/25/173 114/19/101 113/28/104 137/29/171
f 139/20/174 115/13/133 114/19/101 138/25/173
f 140/14/175 116/8/72 115/13/133 139/20/174
f 141/10/176 117/4/20 116/8/72 140/14/175
f 142/9/177 118/1/17 117/4/20 141/10/176
f 119/6/152 118/1/17 142/9/177 143/11/178
s 1
f 144/154/179 120/150/33 119/156/54 143/159/180
f 144/154/179 121/152/154 97/146/34 120/150/33
f 16/153/181 122/147/153 121/152/154 12/157/182
f 24/148/183 123/143/155 122/147/153 16/153/181
f 124/144/156 123/143/155 24/148/183 3/149/184
s 6
f 91/50/185 125/45/157 124/49/158 3/55/186
f 126/46/159 125/45/157 91/50/185 30/51/187
f 127/52/160 126/46/159 30/51/187 42/56/188
f 77/60/189 128/57/161 127/52/160 42/56/188
f 65/64/190 129/61/162 128/57/161 77/60/189
f 130/65/163 129/61/162 65/64/190 54/68/191
f 131/69/164 130/65/163 54/68/191 5/70/192
s 3
f 5/169/193 21/170/194 132/166/166 131/165/165
f 21/170/194 13/174/195 133/171/167 132/166/166
f 13/174/195 9/178/196 134/175/168 133/171/167
f 9/178/196 17/182/197 135/179/169 134/175/168
f 17/182/197 6/184/198 136/183/170 135/179/169
s 5
f 49/34/199 137/29/171 136/33/172 6/36/200
f 70/30/201 138/25/173 137/29/171 49/34/199
f 82/26/202 139/20/174 138/25/173 70/30/201
f 37/21/203 140/14/175 139/20/174 82/26/202
f 25/16/204 141/10/176 140/14/175 37/21/203
f 96/15/205 142/9/177 141/10/176 25/16/204
f 143/11/178 142/9/177 96/15/205 4/17/206
s 1
f 20/158/207 144/154/179 143/159/180 4/160/208
f 12/157/182 121/152/154 144/154/179 20/158/207
