# Blender 4.0.2
# www.blender.org
mtllib screen.mtl
o screen
v -113.424957 257.086914 -1.012597
v -113.424973 100.714767 -1.012597
v -56.712475 257.086914 -1.012597
v -56.712490 100.714767 -1.012597
v 0.000005 257.086914 -1.012597
v -0.000005 100.714767 -1.012597
v 56.712490 257.086914 -1.012597
v 56.712475 100.714767 -1.012597
v 113.424973 257.086914 -1.012597
v 113.424957 100.714767 -1.012597
v -164.912918 257.086914 -1.012597
v -164.912918 100.714767 -1.012597
v 164.912918 257.086914 -1.012597
v 164.912918 100.714767 -1.012597
vn -0.0000 -0.0000 -1.0000
vt 0.156107 0.000000
vt 0.156106 1.000000
vt -0.000000 1.000000
vt 0.000000 0.000000
vt 1.000000 0.000000
vt 1.000000 1.000000
vt 0.843893 1.000000
vt 0.843893 0.000000
vt 0.671947 1.000000
vt 0.671947 0.000000
vt 0.500000 1.000000
vt 0.500000 0.000000
vt 0.328053 1.000000
vt 0.328053 0.000000
s 0
usemtl monitor
f 10/1/1 9/2/1 13/3/1 14/4/1
f 12/5/1 11/6/1 1/7/1 2/8/1
f 2/8/1 1/7/1 3/9/1 4/10/1
f 4/10/1 3/9/1 5/11/1 6/12/1
f 6/12/1 5/11/1 7/13/1 8/14/1
f 8/14/1 7/13/1 9/2/1 10/1/1
