# Blender 4.0.2
# www.blender.org
mtllib stone_4.mtl
o Cylinder
v -0.196014 0.930928 -0.021946
v 0.063795 -0.872593 -0.820360
v 0.595348 -0.776325 -0.753306
v 0.754426 -0.363250 -0.521060
v 0.904401 0.800268 -0.017501
v 0.700098 -0.898039 0.387309
v -0.798765 0.936265 0.096802
v -0.854193 -0.134460 -0.195085
v -0.293144 -0.167976 -0.891068
v 0.407409 1.096380 -0.311073
v 0.831655 0.979354 0.055782
v 0.486535 0.988394 0.886691
v -0.223100 1.222118 0.831884
v 0.001710 1.074165 1.180932
v -0.208038 1.032206 0.344297
v 0.240232 1.137710 -0.346912
v 0.360744 1.017721 0.214796
v -0.324305 0.898129 -0.324389
v 0.258137 -0.850446 -0.424244
v -0.014229 -0.873780 -0.401254
v 0.503869 -1.087176 0.115061
v 0.123078 -1.021961 0.480775
v -0.064730 -1.058420 0.084483
v 0.560987 0.747732 -0.708082
v 0.721710 0.320460 0.423924
v -0.914799 0.275790 0.140146
v -0.575701 0.161432 -0.630592
v 0.008698 0.053342 1.091568
v 0.852265 -0.078068 0.105859
v 0.542174 0.147251 -0.636494
v 0.022858 0.831222 -1.093975
v 0.415473 0.605305 -0.862354
v 0.851742 0.245223 -0.288899
v 0.569601 0.249981 0.722120
v 0.404524 0.820942 1.017562
v 0.041645 0.753838 1.209523
v -0.222647 0.370533 0.933343
v -1.035555 0.803050 0.147419
v -0.801130 0.312071 -0.274085
v -0.782668 0.849269 -0.559820
v -0.246794 0.559114 -1.025918
v -0.302304 0.208161 -0.919596
v -0.033486 1.035705 -0.971156
v 0.511519 0.928943 -0.558132
v 0.780227 1.039395 -0.276077
v 0.896236 0.859021 -0.388643
v 0.734305 0.867141 0.572817
v 0.495526 1.074986 0.682024
v 0.133348 1.221719 0.900674
v -0.003717 1.243878 0.600444
v -0.612104 0.885613 0.722218
v -0.457510 0.967250 -0.688894
v -0.047221 1.126601 -0.827752
v -0.091133 0.984238 -0.419178
v 0.076320 1.109284 0.244897
v 0.881089 -0.911320 -0.404602
v 0.532590 -0.861116 -0.612563
v 0.445044 -0.960081 -0.100124
v 0.821503 -1.114198 0.028274
v 0.948636 -0.995171 0.114533
v 0.398373 -0.846172 0.652683
v -0.025913 -0.961132 0.903906
v -0.177457 -0.919402 0.472835
v -0.521041 -0.867469 0.702340
v -0.713987 -0.852863 0.257119
v -0.861217 -0.946927 -0.129290
v -0.473964 -0.789240 -0.559165
v -0.167180 -0.808577 -0.738178
v 0.202860 -1.111733 0.200847
v -0.513427 -1.011124 0.069706
v -0.398775 -0.861387 -0.216833
v -0.781453 -0.306963 -0.491561
v -0.742011 -0.858178 -0.325423
v -1.042119 -0.553210 -0.083766
v -1.014023 -0.381016 0.182206
v -0.499600 -0.676910 0.952380
v -0.263058 -0.584113 1.107518
v -0.260916 -0.045808 0.886709
v 0.125347 -0.468939 0.917219
v 0.656286 -0.127278 0.687394
v 0.821811 -0.414944 0.415508
v 1.065801 -0.715762 0.103526
v 1.095810 -0.532423 -0.208996
v 0.910900 -0.169644 -0.348841
v 0.927754 -0.756621 -0.503086
v 0.055821 -0.163320 -0.805030
v 0.223622 -0.773956 -0.906386
vn 0.2878 -0.3945 -0.8727
vn 0.5451 0.5369 -0.6439
vn 0.7569 -0.1007 -0.6457
vn 0.7084 -0.1629 -0.6867
vn 0.7033 0.1989 -0.6825
vn 0.9687 0.1925 0.1564
vn 0.9628 -0.1869 0.1953
vn 0.8952 -0.1362 0.4244
vn 0.4889 -0.2853 0.8244
vn 0.5381 0.0462 0.8416
vn 0.5817 -0.1616 0.7972
vn -0.6487 -0.0966 0.7549
vn -0.5964 -0.0350 0.8019
vn -0.4466 0.8712 0.2038
vn -0.9378 -0.2110 -0.2758
vn -0.8441 0.0055 -0.5361
vn -0.8640 -0.2130 -0.4563
vn -0.4613 0.4111 -0.7863
vn -0.7152 -0.0966 -0.6922
vn -0.5271 0.3261 -0.7847
vn 0.6109 0.6938 -0.3813
vn 0.4109 0.6452 -0.6441
vn 0.1349 0.9785 0.1561
vn 0.8324 0.5534 -0.0289
vn 0.9310 0.3631 0.0370
vn 0.9301 0.2812 0.2362
vn -0.5067 0.8530 -0.1254
vn 0.7008 0.6454 0.3039
vn 0.5258 0.7749 0.3509
vn 0.2816 0.9392 -0.1963
vn 0.3314 0.9399 -0.0819
vn -0.0143 0.9967 0.0801
vn -0.0827 0.8973 0.4336
vn 0.3474 0.9002 -0.2626
vn -0.4390 0.8326 -0.3378
vn -0.3899 0.9206 0.0206
vn 0.1833 0.9759 0.1181
vn -0.3835 0.9143 -0.1305
vn -0.2378 0.9347 0.2642
vn -0.2584 0.9205 0.2930
vn -0.4558 0.7314 -0.5073
vn 0.3164 0.9393 0.1328
vn -0.4813 0.8718 -0.0914
vn -0.3675 0.8394 -0.4005
vn -0.3365 0.9047 -0.2612
vn -0.0115 0.9946 -0.1030
vn 0.0865 -0.9962 0.0133
vn -0.0004 -0.9984 0.0560
vn -0.3005 -0.9256 -0.2301
vn 0.7385 -0.6438 -0.2001
vn -0.1987 -0.8667 -0.4576
vn 0.3252 -0.7575 0.5660
vn 0.2198 -0.8796 0.4219
vn -0.3234 -0.9460 0.0221
vn -0.1721 -0.9845 -0.0348
vn -0.4951 -0.8485 0.1867
vn -0.3588 -0.8663 0.3476
vn 0.0600 -0.9740 -0.2185
vn -0.1178 -0.9766 -0.1800
vn -0.2851 -0.9569 -0.0558
vn -0.1861 -0.9583 -0.2169
vn 0.0132 -0.8972 -0.4414
vn -0.2815 -0.9342 0.2193
vn -0.3194 -0.9178 0.2358
vn -0.0758 -0.8710 -0.4855
vn -0.2049 -0.9076 -0.3663
vn -0.7308 0.1217 -0.6717
vn -0.8838 0.2762 -0.3775
vn -0.9165 0.3729 -0.1446
vn -0.7586 -0.2806 -0.5880
vn -0.8761 0.2910 -0.3843
vn -0.8096 -0.4195 0.4106
vn -0.7104 0.1513 0.6874
vn -0.8057 -0.4656 0.3663
vn -0.6012 0.5244 0.6030
vn -0.2723 -0.5842 0.7646
vn 0.4736 -0.1689 0.8644
vn 0.4694 -0.1433 0.8713
vn 0.5376 -0.1874 0.8221
vn 0.5608 -0.3750 0.7382
vn 0.9450 0.0519 0.3229
vn 0.5833 -0.1930 0.7890
vn 0.6540 -0.0557 0.7545
vn 0.8648 0.1547 0.4777
vn 0.9190 0.2186 0.3282
vn 0.6624 -0.2089 0.7194
vn 0.9046 0.2413 0.3515
vn 0.9041 -0.3875 -0.1802
vn 0.8830 -0.4369 -0.1715
vn 0.5785 0.2190 -0.7857
vn 0.3700 0.2502 -0.8947
vn -0.3746 -0.1853 -0.9085
vn 0.4701 -0.2823 -0.8363
vn 0.5903 0.2338 -0.7726
vn 0.3610 -0.0603 -0.9306
vn 0.7681 -0.0995 -0.6326
vn 0.9964 -0.0778 -0.0342
vn 0.9530 -0.0998 0.2859
vn 0.8047 -0.0722 0.5892
vn 0.7969 0.0779 0.5990
vn 0.4438 0.1344 0.8860
vn -0.6098 -0.1414 0.7798
vn -0.5980 -0.0030 0.8015
vn -0.7532 -0.0044 0.6578
vn -0.7094 -0.2695 0.6512
vn -0.7780 -0.1865 0.5999
vn -0.9636 0.0688 -0.2584
vn -0.9278 -0.1498 -0.3416
vn -0.6908 -0.1348 -0.7103
vn -0.5588 0.3372 -0.7577
vn 0.1594 -0.1474 -0.9762
vn 0.0604 -0.2982 -0.9526
vn -0.4513 0.8567 0.2500
vn 0.4093 0.8548 -0.3191
vn 0.3036 0.8433 -0.4436
vn 0.5486 0.6168 -0.5644
vn 0.1765 0.8478 -0.5002
vn 0.3953 0.6557 -0.6433
vn 0.0362 0.9906 -0.1319
vn 0.6997 0.6594 0.2749
vn 0.4672 0.6728 0.5737
vn 0.5308 0.3450 0.7741
vn -0.6104 0.5074 0.6082
vn 0.0007 0.9318 -0.3629
vn -0.6727 0.6939 0.2570
vn 0.2038 0.9654 0.1625
vn 0.1331 0.9784 0.1582
vn -0.0442 0.9625 -0.2676
vn -0.3255 0.6366 0.6991
vn 0.2154 -0.8164 -0.5358
vn 0.2150 -0.8384 -0.5008
vn 0.1135 -0.9055 -0.4088
vn 0.0738 -0.8432 0.5326
vn 0.6687 -0.2528 0.6993
vn 0.2010 -0.8664 0.4571
vn 0.3955 -0.8792 0.2657
vn 0.1042 -0.9284 -0.3568
vn -0.1366 -0.9823 -0.1281
vn 0.0510 -0.9367 -0.3463
vn 0.0537 -0.9352 -0.3499
vn -0.0698 -0.8672 -0.4931
vn 0.3238 -0.8702 0.3714
vn 0.0005 -0.9752 0.2214
vn -0.1098 -0.9455 0.3066
vn 0.0835 -0.8965 -0.4351
vn 0.2397 -0.0676 -0.9685
vn -0.6187 -0.0744 -0.7821
vn -0.5534 -0.2947 -0.7790
vn -0.5030 -0.2029 -0.8401
vn -0.5921 -0.2711 -0.7589
vn -0.7453 -0.2407 -0.6218
vn -0.9400 0.1216 -0.3187
vn -0.8145 -0.4440 0.3735
vn -0.8554 -0.3741 0.3584
vn -0.7190 0.2662 0.6420
vn -0.6444 0.2924 0.7066
vn -0.3736 -0.7220 0.5823
vn 0.4828 -0.1844 0.8561
vn 0.8697 0.3847 0.3092
vn 0.9046 -0.3864 -0.1798
vn 0.9868 0.1260 0.1019
vn 0.7200 0.2884 -0.6313
vn 0.6932 0.0771 -0.7166
vn 0.8873 0.4606 0.0217
vn 0.5173 -0.5652 -0.6427
vn 0.6694 0.1123 -0.7344
vn 0.4327 0.3094 -0.8468
vn 0.2307 0.2207 -0.9477
vn -0.3580 -0.2828 -0.8899
vt 0.775965 0.381679
vt 0.743483 0.565395
vt 0.703381 0.498781
vt 0.749714 0.625689
vt 0.681844 0.540777
vt 0.622804 0.392607
vt 0.678874 0.363719
vt 0.631116 0.573592
vt 0.626629 0.270279
vt 0.533060 0.414792
vt 0.575505 0.297282
vt 0.590596 0.556268
vt 0.520570 0.575986
vt 0.496582 0.394010
vt 0.470119 0.562364
vt 0.438602 0.542578
vt 0.435390 0.336029
vt 0.506173 0.282771
vt 0.412303 0.429556
vt 0.407339 0.306794
vt 0.306524 0.596368
vt 0.308297 0.557088
vt 0.370736 0.581433
vt 0.309190 0.401620
vt 0.268367 0.412318
vt 0.225062 0.367901
vt 0.277207 0.280654
vt 0.242656 0.570717
vt 0.211779 0.605505
vt 0.178039 0.485161
vt 0.186244 0.381679
vt 0.159993 0.625689
vt 0.153762 0.565395
vt 0.792837 0.983486
vt 0.790272 0.956704
vt 0.843956 0.866903
vt 0.624393 0.626777
vt 0.676025 0.594209
vt 0.954409 0.791696
vt 0.944805 0.853674
vt 0.875178 0.860210
vt 0.966470 0.874697
vt 0.581370 0.609074
vt 0.491866 0.637272
vt 0.481279 0.611739
vt 0.823995 0.633905
vt 0.889955 0.636517
vt 0.891634 0.674740
vt 0.813344 0.756377
vt 0.866463 0.761999
vt 0.798396 0.689976
vt 0.757425 0.646753
vt 0.799410 0.581565
vt 0.760238 0.737814
vt 0.782071 0.880399
vt 0.738524 0.862697
vt 0.762483 0.806213
vt 0.713647 0.930771
vt 0.649914 0.784036
vt 0.652920 0.906666
vt 0.224967 0.738776
vt 0.239539 0.660505
vt 0.275834 0.734483
vt 0.327091 0.699313
vt 0.310741 0.795015
vt 0.381048 0.818995
vt 0.392176 0.738151
vt 0.404791 0.835104
vt 0.321727 0.835203
vt 0.358374 0.886048
vt 0.265511 0.851224
vt 0.302025 0.935609
vt 0.250611 0.903503
vt 0.222785 0.982526
vt 0.194483 0.902020
vt 0.130316 0.944882
vt 0.131738 0.826732
vt 0.094281 0.861733
vt 0.066785 0.789568
vt 0.153150 0.773219
vt 0.089048 0.752939
vt 0.139108 0.709285
vt 0.196403 0.675853
vt 0.215536 0.829492
vt 0.248045 0.229789
vt 0.311425 0.207954
vt 0.289200 0.157181
vt 0.283649 0.041089
vt 0.261426 0.067258
vt 0.325340 0.068825
vt 0.390835 0.120707
vt 0.413647 0.148069
vt 0.430429 0.036901
vt 0.445810 0.182029
vt 0.482958 0.070798
vt 0.540171 0.197950
vt 0.535355 0.055504
vt 0.578868 0.109250
vt 0.608169 0.163310
vt 0.639875 0.097203
vt 0.576181 0.026864
vt 0.633342 0.051588
vt 0.681500 0.091393
vt 0.651530 0.213192
vt 0.741804 0.272144
vt 0.723793 0.092092
vt 0.740796 0.063007
vt 0.769702 0.081883
vt 0.435377 0.637030
vt 0.894621 0.906350
vt 0.684775 0.667234
vt 0.186537 0.270771
vt 0.152083 0.272144
vt 0.179981 0.081883
vt 0.223079 0.087585
vt 0.375912 0.064518
vt 0.776258 0.270771
s 0
usemtl stone
f 42/1/1 31/2/1 32/3/1
f 43/4/2 24/5/2 31/2/2
f 24/5/3 33/6/3 30/7/3
f 46/8/4 33/6/4 24/5/4
f 30/7/5 33/6/5 84/9/5
f 33/6/6 25/10/6 29/11/6
f 33/6/7 5/12/7 25/10/7
f 47/13/8 34/14/8 25/10/8
f 35/15/9 36/16/9 34/14/9
f 34/14/10 28/17/10 80/18/10
f 36/16/11 28/17/11 34/14/11
f 28/17/12 36/16/12 37/19/12
f 28/17/13 37/19/13 78/20/13
f 7/21/14 38/22/14 51/23/14
f 26/24/15 38/22/15 39/25/15
f 39/25/16 27/26/16 8/27/16
f 40/28/17 27/26/17 39/25/17
f 40/28/18 52/29/18 41/30/18
f 41/30/19 42/31/19 27/26/19
f 41/30/20 43/32/20 31/33/20
f 43/34/21 53/35/21 16/36/21
f 45/37/22 24/5/22 44/38/22
f 11/39/23 45/40/23 10/41/23
f 11/39/24 46/42/24 45/40/24
f 11/43/25 5/12/25 46/8/25
f 11/43/26 47/13/26 5/12/26
f 7/21/27 40/28/27 38/22/27
f 48/44/28 12/45/28 47/13/28
f 49/46/29 12/47/29 48/48/29
f 55/49/30 48/48/30 17/50/30
f 50/51/31 49/46/31 48/48/31
f 13/52/32 49/46/32 50/51/32
f 49/46/33 13/52/33 14/53/33
f 50/51/34 48/48/34 55/49/34
f 50/51/35 15/54/35 13/52/35
f 16/36/36 54/55/36 18/56/36 1/57/36
f 52/58/37 7/59/37 18/56/37
f 52/58/38 40/60/38 7/59/38
f 54/55/39 52/58/39 18/56/39
f 53/35/40 52/58/40 54/55/40
f 53/35/41 43/34/41 52/58/41
f 17/50/42 16/36/42 55/49/42
f 55/49/43 16/36/43 1/57/43
f 50/51/44 55/49/44 15/54/44
f 15/54/45 55/49/45 1/57/45
f 18/56/46 7/59/46 1/57/46
f 20/61/47 2/62/47 19/63/47
f 19/63/48 2/62/48 57/64/48
f 58/65/49 57/64/49 59/66/49
f 59/66/50 56/67/50 60/68/50
f 21/69/51 58/65/51 59/66/51
f 59/66/52 60/68/52 6/70/52
f 69/71/53 6/70/53 61/72/53
f 22/73/54 62/74/54 63/75/54
f 63/75/55 62/74/55 64/76/55
f 70/77/56 64/76/56 65/78/56
f 70/77/57 65/78/57 66/79/57
f 71/80/58 73/81/58 67/82/58
f 71/80/59 67/82/59 20/61/59
f 68/83/60 2/62/60 20/61/60
f 57/64/61 58/65/61 19/63/61
f 58/65/62 69/71/62 23/84/62
f 69/71/63 22/73/63 23/84/63
f 22/73/64 63/75/64 23/84/64
f 70/77/65 71/80/65 23/84/65
f 71/80/66 20/61/66 23/84/66
f 72/85/67 27/26/67 42/31/67
f 27/26/68 72/85/68 8/27/68
f 75/86/69 8/27/69 74/87/69
f 66/88/70 74/87/70 73/89/70
f 8/27/71 72/85/71 74/87/71
f 74/87/72 66/88/72 65/90/72
f 78/20/73 26/24/73 75/86/73
f 76/91/74 74/87/74 65/90/74
f 77/92/75 75/86/75 76/91/75
f 62/93/76 77/92/76 76/91/76
f 77/92/77 62/93/77 79/94/77
f 80/18/78 77/92/78 79/94/78
f 61/95/79 79/94/79 62/93/79
f 81/96/80 80/18/80 79/94/80
f 29/11/81 25/10/81 80/18/81
f 6/97/82 81/96/82 79/94/82
f 61/95/83 6/97/83 79/94/83
f 25/10/84 34/14/84 80/18/84
f 29/11/85 80/18/85 81/96/85
f 82/98/86 81/96/86 6/97/86
f 29/11/87 81/96/87 83/99/87
f 85/100/88 60/101/88 56/102/88
f 83/99/89 82/98/89 85/100/89
f 3/103/90 4/104/90 85/100/90
f 86/105/91 3/103/91 87/106/91
f 87/106/92 2/107/92 68/108/92
f 86/105/93 32/3/93 30/7/93
f 31/2/94 24/5/94 32/3/94
f 4/104/95 86/105/95 30/7/95
f 30/7/96 32/3/96 24/5/96
f 33/6/97 46/8/97 5/12/97
f 5/12/98 47/13/98 25/10/98
f 47/13/99 35/15/99 34/14/99
f 47/13/100 12/45/100 35/15/100
f 35/15/101 14/109/101 36/16/101
f 37/19/102 36/16/102 51/23/102
f 36/16/103 14/109/103 51/23/103
f 78/20/104 37/19/104 26/24/104
f 37/19/105 51/23/105 26/24/105
f 51/23/106 38/22/106 26/24/106
f 8/27/107 26/24/107 39/25/107
f 39/25/108 38/22/108 40/28/108
f 40/28/109 41/30/109 27/26/109
f 41/30/110 52/29/110 43/32/110
f 86/105/111 42/1/111 32/3/111
f 42/31/112 41/30/112 31/33/112
f 54/55/113 16/36/113 53/35/113
f 16/36/114 44/110/114 43/34/114
f 16/36/115 10/41/115 44/110/115
f 44/38/116 24/5/116 43/4/116
f 44/110/117 10/41/117 45/40/117
f 45/37/118 46/8/118 24/5/118
f 17/50/119 48/48/119 11/39/119
f 11/43/120 48/44/120 47/13/120
f 12/47/121 49/46/121 14/53/121
f 12/45/122 14/109/122 35/15/122
f 13/52/123 51/111/123 14/53/123
f 13/52/124 15/54/124 7/59/124
f 7/59/125 51/111/125 13/52/125
f 17/50/126 10/41/126 16/36/126
f 11/39/127 10/41/127 17/50/127
f 15/54/128 1/57/128 7/59/128
f 57/64/129 2/62/129 56/67/129
f 2/107/130 87/106/130 3/103/130
f 56/102/131 2/107/131 3/103/131
f 59/66/132 57/64/132 56/67/132
f 6/70/133 21/69/133 59/66/133
f 6/97/134 60/101/134 82/98/134
f 69/71/135 21/69/135 6/70/135
f 22/73/136 61/72/136 62/74/136
f 71/80/137 66/79/137 73/81/137
f 20/61/138 67/82/138 68/83/138
f 20/61/139 19/63/139 58/65/139
f 23/84/140 20/61/140 58/65/140
f 58/65/141 21/69/141 69/71/141
f 61/72/142 22/73/142 69/71/142
f 63/75/143 64/76/143 70/77/143
f 70/77/144 23/84/144 63/75/144
f 66/79/145 71/80/145 70/77/145
f 9/112/146 42/31/146 86/113/146
f 9/112/147 72/85/147 42/31/147
f 68/114/148 72/85/148 9/112/148
f 67/115/149 72/85/149 68/114/149
f 67/115/150 73/89/150 72/85/150
f 73/89/151 74/87/151 72/85/151
f 26/24/152 8/27/152 75/86/152
f 76/91/153 75/86/153 74/87/153
f 64/116/154 76/91/154 65/90/154
f 77/92/155 78/20/155 75/86/155
f 28/17/156 78/20/156 77/92/156
f 64/116/157 62/93/157 76/91/157
f 80/18/158 28/17/158 77/92/158
f 83/99/159 81/96/159 82/98/159
f 85/100/160 82/98/160 60/101/160
f 33/6/161 29/11/161 84/9/161
f 85/100/162 4/104/162 83/99/162
f 83/99/163 4/104/163 84/9/163
f 84/9/164 29/11/164 83/99/164
f 3/103/165 85/100/165 56/102/165
f 4/104/166 30/7/166 84/9/166
f 3/103/167 86/105/167 4/104/167
f 9/117/168 86/105/168 87/106/168
f 9/117/169 87/106/169 68/108/169
