# Blender 4.0.2
# www.blender.org
mtllib stone_1.mtl
o Cube.004
v -0.426769 -0.613568 0.159203
v -0.269932 -0.577054 0.593898
v -0.176044 -0.263624 -0.257217
v 0.526762 -0.404742 0.169698
v 0.391853 -0.102538 0.471883
v 0.030251 -0.131231 0.794634
v 0.263082 -0.294775 0.347533
v -0.303791 0.056877 0.278943
v -0.584580 -0.303046 0.168591
v -0.454716 0.420623 0.186959
v -0.399985 -0.206677 -0.274748
v -0.227082 0.348194 -0.338961
v -0.210160 -0.133613 -0.504438
v -0.134588 0.234186 -0.519006
v 0.023015 0.576658 -0.473556
v 0.010052 -0.297862 -0.401169
v 0.158206 -0.067263 -0.319997
v 0.419636 0.279048 -0.331688
v 0.568078 -0.266132 -0.171580
v 0.331029 0.151591 0.102470
v 0.235739 0.359093 0.404507
v -0.023287 0.432371 0.672761
v -0.207693 -0.110470 0.515281
v 0.206602 -0.520590 -0.312271
v 0.496000 -0.717558 0.004680
v 0.088668 -0.846050 0.170808
v -0.036141 -0.682975 0.429208
v 0.150736 0.666522 -0.395981
v -0.005487 0.769106 -0.006339
v 0.201117 0.550797 0.157679
v -0.249586 0.611832 -0.015474
v -0.170473 0.756587 0.427785
vn -0.7176 0.2077 0.6647
vn -0.4234 0.0530 0.9044
vn -0.8954 0.1711 -0.4111
vn -0.9125 0.2466 -0.3264
vn -0.8349 -0.4345 0.3377
vn 0.4431 0.0307 -0.8960
vn 0.4625 -0.1298 -0.8771
vn 0.3277 -0.2779 -0.9030
vn 0.4416 0.0319 -0.8966
vn -0.0194 -0.0191 -0.9996
vn 0.9671 0.1099 0.2296
vn 0.2333 -0.6335 0.7377
vn 0.9417 0.3289 0.0712
vn 0.9890 -0.1321 0.0661
vn 0.5167 -0.6814 0.5183
vn 0.7193 -0.4417 0.5362
vn 0.6398 0.2200 0.7364
vn -0.8697 0.1600 0.4669
vn -0.5264 -0.6723 -0.5206
vn -0.4566 -0.5263 -0.7173
vn 0.0376 -0.8330 -0.5520
vn 0.4548 -0.6375 0.6220
vn 0.3545 -0.4633 0.8122
vn -0.1295 -0.7193 -0.6825
vn 0.4324 0.1526 -0.8887
vn 0.6899 0.7186 0.0874
vn 0.8999 0.3964 0.1817
vn -0.8047 0.4316 -0.4077
vn -0.7264 0.6810 -0.0928
vn -0.7402 0.1578 0.6536
vn -0.7234 0.3896 0.5700
vn -0.8121 -0.3999 -0.4250
vn -0.1895 -0.8796 -0.4364
vn -0.8181 0.1922 -0.5420
vn -0.7845 0.1372 -0.6047
vn -0.4374 -0.8194 -0.3705
vn -0.6892 0.3976 -0.6058
vn 0.3217 -0.0224 -0.9466
vn 0.4429 -0.1395 -0.8856
vn 0.9021 0.3280 0.2804
vn 0.8977 0.4178 0.1396
vn 0.9536 0.2206 0.2051
vn 0.7222 0.3327 0.6064
vn -0.7570 0.0686 0.6499
vn -0.7372 0.2067 0.6433
vn 0.6239 0.6572 0.4229
vn 0.5546 -0.3780 -0.7413
vn -0.3235 -0.7463 -0.5818
vn -0.2945 -0.9376 0.1850
vn -0.3919 -0.8516 0.3481
vn 0.5849 -0.2916 0.7569
vn 0.2986 -0.5517 0.7787
vn 0.8171 0.5747 0.0458
vn -0.3717 0.8502 -0.3729
vn -0.7200 0.5126 -0.4678
vn -0.4966 0.7915 -0.3563
vn -0.5284 0.8304 -0.1769
vn 0.6020 0.7581 0.2507
vn -0.7387 -0.1397 0.6594
vn 0.6557 0.6215 0.4286
vt 0.548858 0.814696
vt 0.478471 0.778731
vt 0.537234 0.727557
vt 0.502724 0.913882
vt 0.530911 0.845949
vt 0.870308 0.665836
vt 0.714322 0.595324
vt 0.976309 0.422669
vt 0.843434 0.405921
vt 0.322900 0.889142
vt 0.071216 0.946439
vt 0.088736 0.829815
vt 0.673077 0.808721
vt 0.741873 0.821112
vt 0.714204 0.778046
vt 0.687191 0.877410
vt 0.790697 0.885789
vt 0.750911 0.736449
vt 0.595396 0.350115
vt 0.381848 0.267624
vt 0.500850 0.255810
vt 0.522497 0.572246
vt 0.497301 0.628686
vt 0.473252 0.592784
vt 0.452354 0.127733
vt 0.670434 0.187658
vt 0.603893 0.088158
vt 0.686544 0.024055
vt 0.429769 0.623327
vt 0.417370 0.520284
vt 0.281143 0.236467
vt 0.331541 0.064573
vt 0.583298 0.916076
vt 0.677715 0.260236
vt 0.774425 0.369047
vt 0.695780 0.331445
vt 0.942828 0.308369
vt 0.457352 0.453880
vt 0.372529 0.441133
vt 0.413304 0.375665
vt 0.349220 0.471589
vt 0.516752 0.513825
vt 0.716624 0.941370
vt 0.740477 0.958153
vt 0.110742 0.038905
vt 0.123268 0.276797
vt 0.011758 0.288051
vt 0.414589 0.346940
vt 0.752883 0.703566
vt 0.238160 0.288095
vt 0.276652 0.365960
vt 0.133157 0.494717
vt 0.555809 0.976627
vt 0.729323 0.396597
vt 0.660078 0.530453
vt 0.582293 0.643747
vt 0.818420 0.783971
vt 0.593296 0.810819
vt 0.804959 0.699664
vt 0.805677 0.223075
vt 0.313492 0.735108
vt 0.242883 0.573020
vt 0.373707 0.540066
vt 0.518016 0.424368
vt 0.188398 0.023662
vt 0.294509 0.336560
s 0
usemtl stone
f 23/1/1 9/2/1 2/3/1
f 10/4/2 9/2/2 8/5/2
f 10/6/3 12/7/3 9/8/3
f 12/7/4 11/9/4 9/8/4
f 2/10/5 9/11/5 1/12/5
f 13/13/6 17/14/6 16/15/6
f 13/13/7 14/16/7 17/14/7
f 17/14/8 14/16/8 18/17/8
f 17/14/9 24/18/9 16/15/9
f 18/17/10 24/18/10 17/14/10
f 18/19/11 21/20/11 20/21/11
f 4/22/12 5/23/12 7/24/12
f 20/21/13 21/20/13 5/25/13
f 19/26/14 4/27/14 25/28/14
f 5/23/15 6/29/15 7/24/15
f 6/29/16 27/30/16 7/24/16
f 5/25/17 22/31/17 6/32/17
f 22/33/18 8/5/18 23/1/18
f 24/34/19 3/35/19 16/36/19
f 24/34/20 1/37/20 3/35/20
f 25/38/21 26/39/21 24/40/21
f 25/38/22 27/41/22 26/39/22
f 4/22/23 7/24/23 25/42/23
f 11/9/24 3/35/24 1/37/24
f 15/43/25 28/44/25 18/17/25
f 28/45/26 29/46/26 30/47/26
f 18/19/27 30/48/27 21/20/27
f 12/7/28 10/6/28 31/49/28
f 31/50/29 10/51/29 32/52/29
f 10/4/30 22/33/30 32/53/30
f 23/1/31 8/5/31 9/2/31
f 9/8/32 11/9/32 1/37/32
f 3/35/33 11/9/33 13/54/33
f 11/9/34 12/7/34 14/55/34
f 11/9/35 14/55/35 13/54/35
f 13/54/36 16/36/36 3/35/36
f 12/7/37 15/56/37 14/55/37
f 14/16/38 15/43/38 18/17/38
f 24/18/39 18/17/39 19/57/39
f 18/19/40 20/21/40 19/26/40
f 19/26/41 20/21/41 5/25/41
f 19/26/42 5/25/42 4/27/42
f 5/25/43 21/20/43 22/31/43
f 6/58/44 22/33/44 23/1/44
f 6/58/45 23/1/45 2/3/45
f 21/20/46 30/48/46 22/31/46
f 25/59/47 24/18/47 19/57/47
f 24/34/48 26/60/48 1/37/48
f 1/12/49 27/61/49 2/10/49
f 1/12/50 26/62/50 27/61/50
f 25/42/51 7/24/51 27/30/51
f 27/30/52 6/29/52 2/63/52
f 18/19/53 28/64/53 30/48/53
f 28/45/54 15/65/54 29/46/54
f 15/56/55 12/7/55 31/49/55
f 29/46/56 15/65/56 31/50/56
f 29/46/57 31/50/57 32/52/57
f 30/47/58 29/46/58 32/52/58
f 10/4/59 8/5/59 22/33/59
f 32/66/60 22/31/60 30/48/60
